<?xml version="1.0" encoding="utf-8"?>
<!-- Generator: Adobe Illustrator 17.0.0, SVG Export Plug-In . SVG Version: 6.00 Build 0)  -->
<!DOCTYPE svg PUBLIC "-//W3C//DTD SVG 1.1//EN" "http://www.w3.org/Graphics/SVG/1.1/DTD/svg11.dtd">
<svg version="1.1" id="Layer_1" xmlns="http://www.w3.org/2000/svg" xmlns:xlink="http://www.w3.org/1999/xlink" x="0px" y="0px"
	 width="106px" height="105px" viewBox="0 0 106 105" enable-background="new 0 0 106 105" xml:space="preserve">
<g>
	<path fill="#FFFFFF" d="M85.604,21.306C82.267,10.81,72.557,3.624,61.408,3.624c-9.795,0-18.491,5.473-22.759,14.13
		c-2.435-1.066-5.06-1.621-7.711-1.621c-10.533,0-19.124,8.47-19.321,18.955C5.046,36.115,0,41.817,0,48.673
		c0,7.583,6.169,13.751,13.752,13.751h71.689c11.338,0,20.559-9.224,20.559-20.559C105.996,30.583,96.865,21.394,85.604,21.306z
		 M85.439,58.152H13.75c-5.227,0-9.479-4.252-9.479-9.479c0-5.227,4.25-9.48,9.394-9.48c0.647,0.045,1.247-0.184,1.687-0.632
		c0.442-0.449,0.664-1.071,0.602-1.698c-0.045-0.464-0.071-0.931-0.071-1.406c0-8.3,6.752-15.052,15.053-15.052
		c2.681,0,5.331,0.733,7.667,2.121c0.54,0.321,1.198,0.391,1.79,0.182c0.594-0.205,1.068-0.664,1.294-1.25
		c3.172-8.236,10.913-13.559,19.72-13.559c9.764,0,18.201,6.63,20.521,16.123c0.247,1.012,1.335,1.687,2.362,1.615
		c0.379-0.028,0.758-0.055,1.145-0.055c8.979,0,16.287,7.305,16.287,16.287S94.419,58.152,85.439,58.152z"/>
	<line fill="none" stroke="#FFFFFF" stroke-width="6" stroke-miterlimit="10" x1="21.422" y1="71.035" x2="33.38" y2="86.526"/>
	<line fill="none" stroke="#FFFFFF" stroke-width="6" stroke-miterlimit="10" x1="43.411" y1="71.035" x2="55.368" y2="86.526"/>
	<line fill="none" stroke="#FFFFFF" stroke-width="6" stroke-miterlimit="10" x1="65.399" y1="71.035" x2="77.357" y2="86.526"/>
	<line fill="none" stroke="#FFFFFF" stroke-width="6" stroke-miterlimit="10" x1="86.131" y1="71.035" x2="98.089" y2="86.526"/>
	
		<line fill="none" stroke="#FFFFFF" stroke-width="4.9385" stroke-miterlimit="10" x1="86.112" y1="88.626" x2="95.954" y2="101.376"/>
	
		<line fill="none" stroke="#FFFFFF" stroke-width="4.9385" stroke-miterlimit="10" x1="64.022" y1="88.626" x2="73.864" y2="101.376"/>
	
		<line fill="none" stroke="#FFFFFF" stroke-width="4.9385" stroke-miterlimit="10" x1="40.898" y1="88.626" x2="50.74" y2="101.376"/>
</g>
</svg>
