<?xml version="1.0" encoding="utf-8"?>
<!-- Generator: Adobe Illustrator 17.0.0, SVG Export Plug-In . SVG Version: 6.00 Build 0)  -->
<!DOCTYPE svg PUBLIC "-//W3C//DTD SVG 1.1//EN" "http://www.w3.org/Graphics/SVG/1.1/DTD/svg11.dtd">
<svg version="1.1" id="Layer_1" xmlns="http://www.w3.org/2000/svg" xmlns:xlink="http://www.w3.org/1999/xlink" x="0px" y="0px"
	 width="106px" height="106px" viewBox="0 0 106 106" enable-background="new 0 0 106 106" xml:space="preserve">
<path fill="#FFFFFF" d="M85.604,41.282C82.267,30.785,72.557,23.6,61.408,23.6c-9.795,0-18.491,5.473-22.759,14.13
	c-2.435-1.066-5.06-1.622-7.711-1.622c-10.533,0-19.124,8.47-19.321,18.955C5.046,56.091,0,61.792,0,68.649
	C0,76.231,6.169,82.4,13.752,82.4h71.689C96.779,82.4,106,73.177,106,61.841C105.996,50.559,96.865,41.37,85.604,41.282z
	 M85.438,78.128H13.75c-5.227,0-9.479-4.252-9.479-9.479c0-5.227,4.25-9.48,9.394-9.48c0.647,0.045,1.247-0.184,1.687-0.632
	c0.442-0.449,0.664-1.071,0.602-1.698c-0.045-0.464-0.071-0.931-0.071-1.406c0-8.3,6.752-15.052,15.053-15.052
	c2.681,0,5.332,0.733,7.667,2.121c0.54,0.321,1.198,0.391,1.79,0.182c0.594-0.205,1.068-0.664,1.294-1.25
	c3.172-8.237,10.913-13.559,19.72-13.559c9.764,0,18.201,6.63,20.521,16.123c0.247,1.012,1.335,1.687,2.362,1.615
	c0.379-0.028,0.758-0.055,1.145-0.055c8.979,0,16.287,7.305,16.287,16.287C101.722,70.825,94.419,78.128,85.438,78.128z"/>
</svg>
