<?xml version="1.0" encoding="utf-8"?>
<!-- Generator: Adobe Illustrator 17.0.0, SVG Export Plug-In . SVG Version: 6.00 Build 0)  -->
<!DOCTYPE svg PUBLIC "-//W3C//DTD SVG 1.1//EN" "http://www.w3.org/Graphics/SVG/1.1/DTD/svg11.dtd">
<svg version="1.1" id="Layer_1" xmlns="http://www.w3.org/2000/svg" xmlns:xlink="http://www.w3.org/1999/xlink" x="0px" y="0px"
	 width="106px" height="105px" viewBox="0 0 106 105" enable-background="new 0 0 106 105" xml:space="preserve">
<g>
	<path fill="#FFFFFF" d="M53.79,75.458c-13.227,0-23.989-10.762-23.989-23.989S40.563,27.482,53.79,27.482
		c13.227,0,23.988,10.761,23.988,23.988S67.018,75.458,53.79,75.458z M53.79,31.611c-10.95,0-19.859,8.908-19.859,19.858
		c0,10.95,8.909,19.859,19.859,19.859c10.95,0,19.858-8.908,19.858-19.859C73.649,40.52,64.74,31.611,53.79,31.611z"/>
	<rect x="50.5" y="-1" fill="#FFFFFF" width="4" height="23"/>
	<rect x="50.5" y="82" fill="#FFFFFF" width="4" height="23"/>
	
		<rect x="13.026" y="20.513" transform="matrix(0.7071 0.7071 -0.7071 0.7071 23.1194 -10.6565)" fill="#FFFFFF" width="22.793" height="4.13"/>
	
		<rect x="71.869" y="79.357" transform="matrix(0.7071 0.7071 -0.7071 0.7071 81.964 -35.0301)" fill="#FFFFFF" width="22.793" height="4.129"/>
	
		<rect x="81.201" y="11.182" transform="matrix(0.7071 0.7071 -0.7071 0.7071 40.353 -52.2646)" fill="#FFFFFF" width="4.129" height="22.793"/>
	
		<rect x="22.358" y="70.025" transform="matrix(0.7072 0.707 -0.707 0.7072 64.7181 6.5738)" fill="#FFFFFF" width="4.13" height="22.793"/>
	<rect x="0.5" y="51" fill="#FFFFFF" width="23" height="4"/>
	<rect x="83.5" y="51" fill="#FFFFFF" width="23" height="4"/>
</g>
</svg>
